Format : AVI
Format/Info : Audio Video Interleave
File size : 1.19 GiB
Duration : 1h 27mn
Overall bit rate : 1 945 Kbps
Writing application : VirtualDubMod 1.5.10.3 | www.virtualdub-fr.org || (build 2550/release)
Writing library : VirtualDubMod build 2550/release

Video
ID : 0
Format : MPEG-4 Visual
Format profile : Simple@L1
Format settings, BVOP : No
Format settings, QPel : No
Format settings, GMC : No warppoints
Format settings, Matrix : Default (H.263)
Duration : 1h 27mn
Bit rate : 1 805 Kbps
Width : 720 pixels
Height : 404 pixels
Display aspect ratio : 16:9
Frame rate : 29.970 fps
Color space : YUV
Chroma subsampling : 4:2:0
Bit depth : 8 bits
Scan type : Progressive
Compression mode : Lossy
Bits/(Pixel*Frame) : 0.207
Stream size : 1.11 GiB (93%)
Writing library : DigiArty AV Encoder Core

Audio
ID : 1
Format : MPEG Audio
Format version : Version 1
Format profile : Layer 3
Codec ID : 55
Codec ID/Hint : MP3
Duration : 1h 27mn
Bit rate mode : Constant
Bit rate : 128 Kbps
Channel(s) : 2 channels
Sampling rate : 44.1 KHz
Compression mode : Lossy
Stream size : 80.4 MiB (7%)
Alignment : Split accross interleaves
Interleave, duration : 33 ms (1.00 video frame)
Interleave, preload duration : 500 ms
Writing library : LAME3.98.4



 
http://www.imdb.com/title/tt1790658/







Users: 6.0/10 (59 votes) 3 reviews | Critics: 1 reviews

Sally and Jason Danville's life are turned upside down when a tragic accident suddenly names them the caretakers of four young children.
Director:
John Kent Harrison
Writers:
Karen Hall (teleplay), John Kent Harrison (teleplay), and 2 more credits »
Stars:
Brooke White, Joe Flanigan and Phylicia Rashad















SOURCE .......: Change.of.Plans.2011.NTSC.DVDR-GRiLL .......... Thanks




Greetz to IMAGiNE,Flawl3ss,DiLLoN,BDK,NOiR,TOXiCiNK,THC,Ez,Rx,Boobyblue,TaRiQ786,LKRG,CrEwSaDe
